# xmcd
#
# Track frame offsets: 
#        150
#        27642
#        40545
#        57077
#        68457
#        83900
#        99425
#        113450
#        130477
#        154290
#        171787
#        191827
#
# Disc length: 2760 seconds
#
# Revision: 3
# Processed by: cddbd v1.5.2PL0 Copyright (c) Steve Scherf et al.
# Submitted via: ExactAudioCopy v1.1
#
DISCID=970ac60c
DTITLE=Rondò Veneziano - I Grandi Successi Originali - CD1
DYEAR=2000
DGENRE=Classical
TTITLE0=Ca' D'Oro
TTITLE1=Musica... Fantasia
TTITLE2=Fantasia Veneziana
TTITLE3=Notturno Veneziano
TTITLE4=Misteriosa Venezia
TTITLE5=Magica Melodia
TTITLE6=Estasi Veneziana
TTITLE7=Capriccio Veneziano
TTITLE8=Cameo
TTITLE9=Venezia Notturna
TTITLE10=Cattedrali
TTITLE11=La Scala D'Oro
EXTD=
EXTT0=
EXTT1=
EXTT2=
EXTT3=
EXTT4=
EXTT5=
EXTT6=
EXTT7=
EXTT8=
EXTT9=
EXTT10=
EXTT11=
PLAYORDER=
